<svg xmlns="http://www.w3.org/2000/svg" xmlns:xlink="http://www.w3.org/1999/xlink" width="500" zoomAndPan="magnify" viewBox="0 0 375 374.999991" height="500" preserveAspectRatio="xMidYMid meet" version="1.2"><defs><clipPath id="547d3f6973"><path d="M 66.210938 136 L 149 136 L 149 305 L 66.210938 305 Z M 66.210938 136 "/></clipPath><clipPath id="5920d329d1"><path d="M 225.132812 136.285156 L 308.421875 136.285156 L 308.421875 304.945312 L 225.132812 304.945312 Z M 225.132812 136.285156 "/></clipPath></defs><g id="5f72f7fd25"><path style=" stroke:none;fill-rule:nonzero;fill:#e2dbcb;fill-opacity:1;" d="M 231.058594 161.441406 C 231.058594 161.429688 231.054688 161.421875 231.054688 161.410156 C 229.6875 147.472656 218.25 136.4375 204.976562 136.285156 L 169.941406 136.285156 C 156.710938 136.4375 145.277344 147.472656 143.90625 161.441406 L 140.105469 203.53125 C 139.804688 206.878906 140.933594 210.21875 143.199219 212.699219 C 147.316406 217.203125 154.835938 217.601562 159.386719 214.0625 L 159.386719 292.9375 C 159.386719 299.558594 164.769531 304.945312 171.472656 304.945312 C 178.09375 304.945312 183.480469 299.558594 183.480469 292.9375 L 183.480469 228.632812 C 183.480469 226.425781 185.277344 224.628906 187.480469 224.628906 C 189.691406 224.628906 191.484375 226.425781 191.484375 228.632812 L 191.484375 292.9375 C 191.484375 299.558594 196.871094 304.945312 203.574219 304.945312 C 210.195312 304.945312 215.582031 299.558594 215.582031 292.9375 L 215.582031 214.0625 C 220.128906 217.605469 227.652344 217.203125 231.765625 212.699219 C 234.03125 210.21875 235.160156 206.878906 234.859375 203.53125 L 231.058594 161.441406 "/><path style=" stroke:none;fill-rule:nonzero;fill:#e2dbcb;fill-opacity:1;" d="M 187.71875 128.253906 C 201.003906 128.253906 211.8125 117.445312 211.8125 104.15625 C 211.8125 90.871094 201.003906 80.0625 187.71875 80.0625 C 174.429688 80.0625 163.621094 90.871094 163.621094 104.15625 C 163.621094 117.445312 174.429688 128.253906 187.71875 128.253906 "/><path style=" stroke:none;fill-rule:nonzero;fill:#e2dbcb;fill-opacity:1;" d="M 118.28125 128.253906 C 131.566406 128.253906 142.375 117.445312 142.375 104.15625 C 142.375 90.871094 131.566406 80.0625 118.28125 80.0625 C 104.996094 80.0625 94.1875 90.871094 94.1875 104.15625 C 94.1875 117.445312 104.996094 128.253906 118.28125 128.253906 "/><path style=" stroke:none;fill-rule:nonzero;fill:#e2dbcb;fill-opacity:1;" d="M 251.734375 128.253906 C 265.019531 128.253906 275.828125 117.445312 275.828125 104.15625 C 275.828125 90.871094 265.019531 80.0625 251.734375 80.0625 C 238.445312 80.0625 227.640625 90.871094 227.640625 104.15625 C 227.640625 117.445312 238.445312 128.253906 251.734375 128.253906 "/><g clip-rule="nonzero" clip-path="url(#547d3f6973)"><path style=" stroke:none;fill-rule:nonzero;fill:#e2dbcb;fill-opacity:1;" d="M 132.109375 202.808594 L 135.90625 160.71875 C 136.878906 150.835938 141.875 142.203125 148.960938 136.285156 L 108.710938 136.285156 C 96.410156 136.285156 85.640625 144.164062 81.917969 155.886719 L 67.191406 202.316406 C 66.175781 205.03125 66.300781 207.964844 67.542969 210.574219 C 68.789062 213.191406 70.992188 215.136719 73.746094 216.058594 C 78.898438 217.761719 84.464844 215.339844 86.808594 210.144531 L 91.699219 197.035156 L 80.644531 290.96875 C 80.058594 294.453125 81.035156 298.003906 83.324219 300.703125 C 85.605469 303.398438 88.941406 304.945312 92.480469 304.945312 C 98.253906 304.945312 103.21875 300.828125 104.308594 294.996094 L 114.628906 224.628906 L 115.175781 224.628906 L 115.175781 292.941406 C 115.175781 299.5625 120.566406 304.945312 127.265625 304.945312 C 133.886719 304.945312 139.269531 299.5625 139.269531 292.941406 L 139.269531 219.890625 C 138.582031 219.324219 137.878906 218.78125 137.273438 218.121094 C 133.488281 213.972656 131.605469 208.390625 132.109375 202.808594 "/></g><g clip-rule="nonzero" clip-path="url(#5920d329d1)"><path style=" stroke:none;fill-rule:nonzero;fill:#e2dbcb;fill-opacity:1;" d="M 307.777344 202.425781 L 293.003906 155.886719 C 289.285156 144.164062 278.519531 136.285156 266.210938 136.285156 L 225.992188 136.285156 C 233.09375 142.1875 238.085938 150.792969 239.046875 160.625 L 242.859375 202.808594 C 243.359375 208.390625 241.480469 213.972656 237.699219 218.117188 C 237.078125 218.792969 236.359375 219.347656 235.65625 219.925781 L 235.65625 292.9375 C 235.65625 299.558594 241.042969 304.945312 247.746094 304.945312 C 254.363281 304.945312 259.75 299.558594 259.75 292.9375 L 259.75 224.628906 L 260.292969 224.628906 L 270.648438 295.152344 C 271.707031 300.828125 276.675781 304.945312 282.445312 304.945312 C 285.980469 304.945312 289.320312 303.394531 291.609375 300.699219 C 293.890625 298 294.867188 294.453125 294.316406 291.15625 L 283.226562 197.023438 L 288.222656 210.402344 C 290.464844 215.332031 296.035156 217.777344 301.183594 216.054688 C 303.933594 215.136719 306.132812 213.191406 307.378906 210.578125 C 308.609375 208 308.75 205.109375 307.777344 202.425781 "/></g></g></svg>