<svg xmlns="http://www.w3.org/2000/svg" xmlns:xlink="http://www.w3.org/1999/xlink" width="500" zoomAndPan="magnify" viewBox="0 0 375 374.999991" height="500" preserveAspectRatio="xMidYMid meet" version="1.2"><defs><clipPath id="3ac9c4d266"><path d="M 37.5 37.5 L 337.5 37.5 L 337.5 337.5 L 37.5 337.5 Z M 37.5 37.5 "/></clipPath><clipPath id="b53e1c4fc1"><path d="M 140 80 L 268 80 L 268 337.5 L 140 337.5 Z M 140 80 "/></clipPath><clipPath id="1390b57575"><path d="M 131 71 L 278 71 L 278 337.5 L 131 337.5 Z M 131 71 "/></clipPath></defs><g id="74139338ee"><g clip-rule="nonzero" clip-path="url(#3ac9c4d266)"><path style="fill-rule:nonzero;fill:#a47149;fill-opacity:1;stroke-width:1;stroke-linecap:butt;stroke-linejoin:miter;stroke:#4267b2;stroke-opacity:1;stroke-miterlimit:10;" d="M 462.698938 234.597806 C 462.698938 238.234896 462.611926 241.871986 462.432102 245.503275 C 462.252278 249.134565 461.985442 252.760053 461.631594 256.379741 C 461.271946 259.999428 460.831087 263.607514 460.297415 267.203999 C 459.763743 270.800484 459.137258 274.379566 458.429563 277.947046 C 457.721868 281.514527 456.927161 285.064605 456.039641 288.59148 C 455.157922 292.118356 454.189192 295.622028 453.13345 299.102496 C 452.077707 302.582965 450.934953 306.03443 449.710988 309.456891 C 448.487024 312.879353 447.176047 316.27281 445.783859 319.631462 C 444.391672 322.990115 442.918273 326.313963 441.363664 329.603006 C 439.809054 332.892049 438.179035 336.134686 436.462003 339.342518 C 434.750773 342.55035 432.958331 345.711776 431.084679 348.832596 C 429.216827 351.953417 427.273566 355.02203 425.254894 358.050038 C 423.230421 361.072245 421.136339 364.042245 418.972647 366.965839 C 416.808956 369.883632 414.569854 372.749218 412.261143 375.562598 C 409.958233 378.375977 407.579912 381.125547 405.137783 383.82291 C 402.695654 386.514473 400.189717 389.148028 397.619971 391.717774 C 395.050224 394.293321 392.416669 396.799259 389.719306 399.241388 C 387.027743 401.683517 384.272372 404.056036 381.464794 406.364747 C 378.651415 408.667658 375.785829 410.906759 372.862235 413.070451 C 369.944442 415.239943 366.968641 417.334025 363.946434 419.352697 C 360.924227 421.371369 357.849813 423.320432 354.734793 425.188283 C 351.613972 427.056135 348.452546 428.848576 345.244714 430.565608 C 342.036882 432.276838 338.788444 433.912659 335.505202 435.467268 C 332.216159 437.021878 328.892311 438.495276 325.533659 439.887464 C 322.175006 441.279651 318.781549 442.584827 315.359088 443.808792 C 311.930826 445.038558 308.479361 446.175511 304.998892 447.231253 C 301.524224 448.286995 298.014751 449.255726 294.487876 450.143245 C 290.961001 451.024964 287.416723 451.819671 283.849243 452.533167 C 280.281762 453.240863 276.70268 453.861546 273.106195 454.395218 C 269.50391 454.92889 265.895824 455.37555 262.281937 455.729398 C 258.66225 456.089046 255.036761 456.355882 251.405472 456.529906 C 247.768382 456.70973 244.137093 456.802542 240.500003 456.802542 C 236.862913 456.802542 233.231623 456.70973 229.594533 456.529906 C 225.963244 456.355882 222.337756 456.089046 218.718068 455.729398 C 215.104181 455.37555 211.496095 454.92889 207.89381 454.395218 C 204.297325 453.861546 200.718243 453.240863 197.150762 452.533167 C 193.583282 451.819671 190.039004 451.024964 186.512129 450.143245 C 182.979453 449.255726 179.475781 448.286995 176.001113 447.231253 C 172.520644 446.175511 169.069179 445.038558 165.640917 443.808792 C 162.218456 442.584827 158.824999 441.279651 155.466347 439.887464 C 152.107694 438.495276 148.783846 437.021878 145.494803 435.467268 C 142.211561 433.912659 138.963123 432.276838 135.755291 430.565608 C 132.547459 428.848576 129.386033 427.056135 126.265212 425.188283 C 123.144392 423.320432 120.075779 421.371369 117.053571 419.352697 C 114.031364 417.334025 111.055563 415.239943 108.13777 413.070451 C 105.214176 410.906759 102.34859 408.667658 99.535211 406.364747 C 96.727633 404.056036 93.972262 401.683517 91.280699 399.241388 C 88.583336 396.799259 85.949781 394.293321 83.380035 391.717774 C 80.810289 389.148028 78.304351 386.514473 75.862222 383.82291 C 73.420093 381.125547 71.041773 378.375977 68.738862 375.562598 C 66.430151 372.749218 64.19105 369.883632 62.027358 366.965839 C 59.863667 364.042245 57.769584 361.072245 55.745112 358.050038 C 53.72644 355.02203 51.783178 351.953417 49.915326 348.832596 C 48.041674 345.711776 46.249232 342.55035 44.538002 339.342518 C 42.820971 336.134686 41.190951 332.892049 39.636341 329.603006 C 38.075931 326.313963 36.608334 322.990115 35.216146 319.631462 C 33.823958 316.27281 32.512982 312.879353 31.289017 309.456891 C 30.065052 306.03443 28.922298 302.582965 27.866556 299.102496 C 26.810814 295.622028 25.842083 292.118356 24.960364 288.59148 C 24.072845 285.064605 23.278138 281.514527 22.570442 277.947046 C 21.862747 274.379566 21.236263 270.800484 20.702591 267.203999 C 20.168919 263.607514 19.728059 259.999428 19.368411 256.379741 C 19.014563 252.760053 18.747727 249.134565 18.567903 245.503275 C 18.388079 241.871986 18.301067 238.234896 18.301067 234.597806 C 18.301067 230.960716 18.388079 227.329427 18.567903 223.698138 C 18.747727 220.066848 19.014563 216.44136 19.368411 212.821672 C 19.728059 209.201985 20.168919 205.593899 20.702591 201.997414 C 21.236263 198.40093 21.862747 194.816047 22.570442 191.248566 C 23.278138 187.686886 24.072845 184.136808 24.960364 180.609933 C 25.842083 177.083058 26.810814 173.579385 27.866556 170.098917 C 28.922298 166.618448 30.065052 163.166983 31.289017 159.744522 C 32.512982 156.31626 33.823958 152.928603 35.216146 149.569951 C 36.608334 146.205498 38.075931 142.887451 39.636341 139.598407 C 41.190951 136.309364 42.820971 133.060927 44.538002 129.853095 C 46.249232 126.651063 48.041674 123.483836 49.915326 120.368817 C 51.783178 117.247996 53.72644 114.173582 55.745112 111.151375 C 57.769584 108.129168 59.863667 105.159168 62.027358 102.235574 C 64.19105 99.31198 66.430151 96.446394 68.738862 93.638816 C 71.041773 90.825437 73.420093 88.075866 75.862222 85.378503 C 78.304351 82.68694 80.810289 80.053385 83.380035 77.483639 C 85.949781 74.908092 88.583336 72.402154 91.280699 69.960025 C 93.972262 67.517896 96.727633 65.145377 99.535211 62.836666 C 102.34859 60.527955 105.214176 58.294654 108.13777 56.125162 C 111.055563 53.96147 114.031364 51.867388 117.053571 49.848716 C 120.075779 47.824243 123.144392 45.880981 126.265212 44.01313 C 129.386033 42.145278 132.547459 40.352837 135.755291 38.635805 C 138.963123 36.924575 142.211561 35.288754 145.494803 33.734145 C 148.783846 32.179536 152.107694 30.706137 155.466347 29.313949 C 158.824999 27.921762 162.218456 26.616586 165.640917 25.38682 C 169.069179 24.162855 172.520644 23.025902 176.001113 21.97016 C 179.475781 20.914418 182.979453 19.939887 186.512129 19.058168 C 190.039004 18.176449 193.583282 17.381742 197.150762 16.668246 C 200.718243 15.96055 204.297325 15.339867 207.89381 14.806195 C 211.496095 14.272523 215.104181 13.825863 218.718068 13.472015 C 222.337756 13.112367 225.963244 12.845531 229.594533 12.665707 C 233.231623 12.491683 236.862913 12.398871 240.500003 12.398871 C 244.137093 12.398871 247.768382 12.491683 251.405472 12.665707 C 255.036761 12.845531 258.66225 13.112367 262.281937 13.472015 C 265.895824 13.825863 269.50391 14.272523 273.106195 14.806195 C 276.70268 15.339867 280.281762 15.96055 283.849243 16.668246 C 287.416723 17.381742 290.961001 18.176449 294.487876 19.058168 C 298.014751 19.939887 301.524224 20.914418 304.998892 21.97016 C 308.479361 23.025902 311.930826 24.162855 315.359088 25.38682 C 318.781549 26.616586 322.175006 27.921762 325.533659 29.313949 C 328.892311 30.706137 332.216159 32.179536 335.505202 33.734145 C 338.788444 35.288754 342.036882 36.924575 345.244714 38.635805 C 348.452546 40.352837 351.613972 42.145278 354.734793 44.01313 C 357.849813 45.880981 360.924227 47.824243 363.946434 49.848716 C 366.968641 51.867388 369.944442 53.96147 372.862235 56.125162 C 375.785829 58.294654 378.651415 60.527955 381.464794 62.836666 C 384.272372 65.145377 387.027743 67.517896 389.719306 69.960025 C 392.416669 72.402154 395.050224 74.908092 397.619971 77.483639 C 400.189717 80.053385 402.695654 82.68694 405.137783 85.378503 C 407.579912 88.075866 409.958233 90.825437 412.261143 93.638816 C 414.569854 96.446394 416.808956 99.31198 418.972647 102.235574 C 421.136339 105.159168 423.230421 108.129168 425.254894 111.151375 C 427.273566 114.173582 429.216827 117.247996 431.084679 120.368817 C 432.958331 123.483836 434.750773 126.651063 436.462003 129.853095 C 438.179035 133.060927 439.809054 136.309364 441.363664 139.598407 C 442.918273 142.887451 444.391672 146.205498 445.783859 149.569951 C 447.176047 152.928603 448.487024 156.31626 449.710988 159.744522 C 450.934953 163.166983 452.077707 166.618448 453.13345 170.098917 C 454.189192 173.579385 455.157922 177.083058 456.039641 180.609933 C 456.927161 184.136808 457.721868 187.686886 458.429563 191.248566 C 459.137258 194.816047 459.763743 198.40093 460.297415 201.997414 C 460.831087 205.593899 461.271946 209.201985 461.631594 212.821672 C 461.985442 216.44136 462.252278 220.066848 462.432102 223.698138 C 462.611926 227.329427 462.698938 230.960716 462.698938 234.597806 Z M 462.698938 234.597806 " transform="matrix(0.673401,0,0,0.673401,25.547143,29.48653)"/></g><g clip-rule="nonzero" clip-path="url(#b53e1c4fc1)"><path style=" stroke:none;fill-rule:nonzero;fill:#ffffff;fill-opacity:1;" d="M 222.652344 82.011719 C 210.730469 84.167969 206.625 86.1875 199.757812 90.09375 C 192.414062 94.269531 187.296875 98.644531 183.796875 102.214844 C 172.347656 114.066406 169.789062 125.109375 167.632812 133.660156 C 164.402344 146.253906 164.738281 158.105469 164.738281 158.105469 L 164.738281 167.332031 L 140.699219 167.332031 L 140.699219 209.148438 L 164.738281 209.148438 L 164.738281 335.414062 C 172.144531 336.558594 179.757812 337.164062 187.5 337.164062 C 198.949219 337.164062 210.125 335.882812 220.832031 333.460938 L 220.832031 209.148438 L 257.398438 209.148438 L 257.398438 167.332031 L 220.832031 167.332031 L 220.832031 158.441406 C 220.832031 158.441406 220.832031 156.828125 220.832031 156.625 C 220.832031 156.421875 220.832031 156.152344 220.832031 155.949219 C 220.832031 154.132812 220.902344 151.4375 221.304688 149.082031 C 222.316406 142.953125 224.402344 138.171875 227.902344 133.929688 C 231.945312 129.082031 236.660156 126.996094 241.910156 126.1875 C 254.90625 124.167969 265.75 128.679688 265.75 128.679688 L 267.769531 84.707031 C 267.769531 84.707031 259.621094 82.078125 246.152344 81.136719 C 236.660156 80.464844 228.242188 81 222.652344 82.011719 Z M 222.652344 82.011719 "/></g><g clip-rule="nonzero" clip-path="url(#1390b57575)"><path style="fill:none;stroke-width:1;stroke-linecap:butt;stroke-linejoin:miter;stroke:#ffffff;stroke-opacity:1;stroke-miterlimit:10;" d="M 292.701235 77.999909 C 274.99725 81.20194 268.900629 84.200944 258.702855 90.001726 C 247.797386 96.202761 240.198362 102.699636 235.000862 108.001551 C 217.998771 125.601122 214.199259 141.999931 210.997228 154.697842 C 206.199982 173.399561 206.698849 190.999132 206.698849 190.999132 L 206.698849 204.700578 L 171.000839 204.700578 L 171.000839 266.797944 L 206.698849 266.797944 L 206.698849 454.302406 C 217.697131 456.002035 229.002854 456.901156 240.500003 456.901156 C 257.502093 456.901156 274.098129 454.998499 289.998071 451.402015 L 289.998071 266.797944 L 344.299187 266.797944 L 344.299187 204.700578 L 289.998071 204.700578 L 289.998071 191.498 C 289.998071 191.498 289.998071 189.102277 289.998071 188.800636 C 289.998071 188.498996 289.998071 188.098742 289.998071 187.797101 C 289.998071 185.099738 290.102485 181.097198 290.699966 177.599327 C 292.202368 168.497901 295.299986 161.397744 300.497486 155.098096 C 306.501295 147.899326 313.502838 144.801708 321.299088 143.600947 C 340.598288 140.601943 356.701258 147.301845 356.701258 147.301845 L 359.700262 82.002448 C 359.700262 82.002448 347.599832 78.098522 327.598737 76.700534 C 313.502838 75.702799 301.002154 76.497506 292.701235 77.999909 Z M 292.701235 77.999909 " transform="matrix(0.673401,0,0,0.673401,25.547143,29.48653)"/></g></g></svg>