<svg xmlns="http://www.w3.org/2000/svg" xmlns:xlink="http://www.w3.org/1999/xlink" width="500" zoomAndPan="magnify" viewBox="0 0 375 374.999991" height="500" preserveAspectRatio="xMidYMid meet" version="1.2"><defs><clipPath id="6f8fa306e0"><path d="M 37.5 37.5 L 337.5 37.5 L 337.5 337.5 L 37.5 337.5 Z M 37.5 37.5 "/></clipPath><clipPath id="44ea28a7b5"><path d="M 187.5 37.5 C 104.65625 37.5 37.5 104.65625 37.5 187.5 C 37.5 270.34375 104.65625 337.5 187.5 337.5 C 270.34375 337.5 337.5 270.34375 337.5 187.5 C 337.5 104.65625 270.34375 37.5 187.5 37.5 Z M 187.5 37.5 "/></clipPath><clipPath id="ba84d67931"><path d="M 93.75 93.75 L 281.25 93.75 L 281.25 281.25 L 93.75 281.25 Z M 93.75 93.75 "/></clipPath></defs><g id="aeceba828f"><g clip-rule="nonzero" clip-path="url(#6f8fa306e0)"><g clip-rule="nonzero" clip-path="url(#44ea28a7b5)"><path style=" stroke:none;fill-rule:nonzero;fill:#a47149;fill-opacity:1;" d="M 37.5 37.5 L 337.5 37.5 L 337.5 337.5 L 37.5 337.5 Z M 37.5 37.5 "/></g></g><g clip-rule="nonzero" clip-path="url(#ba84d67931)"><path style=" stroke:none;fill-rule:nonzero;fill:#ffffff;fill-opacity:1;" d="M 135.929688 93.75 L 238.960938 93.75 C 250.605469 93.75 261.148438 98.472656 268.835938 106.164062 C 276.417969 113.742188 281.25 124.394531 281.25 135.929688 L 281.25 238.960938 C 281.25 250.605469 276.417969 261.148438 268.835938 268.835938 C 261.148438 276.417969 250.605469 281.25 238.960938 281.25 L 135.929688 281.25 C 124.394531 281.25 113.742188 276.417969 106.164062 268.835938 C 98.472656 261.148438 93.75 250.605469 93.75 238.960938 L 93.75 135.929688 C 93.75 124.394531 98.472656 113.742188 106.164062 106.164062 C 113.742188 98.472656 124.394531 93.75 135.929688 93.75 Z M 238.960938 110.445312 L 135.929688 110.445312 C 128.898438 110.445312 122.527344 113.300781 117.914062 117.914062 C 113.300781 122.527344 110.445312 128.898438 110.445312 135.929688 L 110.445312 238.960938 C 110.445312 245.992188 113.300781 252.363281 117.914062 256.976562 C 122.527344 261.699219 128.898438 264.554688 135.929688 264.554688 L 238.960938 264.554688 C 245.992188 264.554688 252.363281 261.699219 256.976562 256.976562 C 261.699219 252.363281 264.554688 245.992188 264.554688 238.960938 L 264.554688 135.929688 C 264.554688 128.898438 261.699219 122.527344 256.976562 117.914062 C 252.363281 113.300781 245.992188 110.445312 238.960938 110.445312 Z M 238.960938 110.445312 "/></g><path style=" stroke:none;fill-rule:nonzero;fill:#ffffff;fill-opacity:1;" d="M 240.058594 126.484375 C 242.367188 126.484375 244.5625 127.363281 245.992188 128.898438 C 247.527344 130.4375 248.515625 132.523438 248.515625 134.832031 C 248.515625 137.136719 247.527344 139.335938 245.992188 140.761719 C 244.5625 142.300781 242.367188 143.289062 240.058594 143.289062 C 237.753906 143.289062 235.664062 142.300781 234.128906 140.761719 C 232.589844 139.335938 231.710938 137.136719 231.710938 134.832031 C 231.710938 132.523438 232.589844 130.4375 234.128906 128.898438 C 235.664062 127.363281 237.753906 126.484375 240.058594 126.484375 Z M 240.058594 126.484375 "/><path style=" stroke:none;fill-rule:nonzero;fill:#ffffff;fill-opacity:1;" d="M 187.445312 141.96875 C 200.078125 141.96875 211.390625 147.132812 219.628906 155.261719 C 227.867188 163.5 233.03125 174.921875 233.03125 187.445312 C 233.03125 200.078125 227.867188 211.390625 219.628906 219.628906 C 211.390625 227.867188 200.078125 233.03125 187.445312 233.03125 C 174.921875 233.03125 163.5 227.867188 155.261719 219.628906 C 147.132812 211.390625 141.96875 200.078125 141.96875 187.445312 C 141.96875 174.921875 147.132812 163.5 155.261719 155.261719 C 163.5 147.132812 174.921875 141.96875 187.445312 141.96875 Z M 207.765625 167.234375 C 202.601562 162.070312 195.355469 158.777344 187.445312 158.777344 C 179.535156 158.777344 172.398438 162.070312 167.234375 167.234375 C 162.070312 172.398438 158.777344 179.535156 158.777344 187.445312 C 158.777344 195.355469 162.070312 202.601562 167.234375 207.765625 C 172.398438 212.929688 179.535156 216.113281 187.445312 216.113281 C 195.355469 216.113281 202.601562 212.929688 207.765625 207.765625 C 212.929688 202.601562 216.113281 195.355469 216.113281 187.445312 C 216.113281 179.535156 212.929688 172.398438 207.765625 167.234375 Z M 207.765625 167.234375 "/></g></svg>