<svg xmlns="http://www.w3.org/2000/svg" xmlns:xlink="http://www.w3.org/1999/xlink" width="500" zoomAndPan="magnify" viewBox="0 0 375 374.999991" height="500" preserveAspectRatio="xMidYMid meet" version="1.2"><defs><clipPath id="565007dbf3"><path d="M 92.917969 36.472656 L 281.917969 36.472656 L 281.917969 338.722656 L 92.917969 338.722656 Z M 92.917969 36.472656 "/></clipPath></defs><g id="3e7dcd1160"><g clip-rule="nonzero" clip-path="url(#565007dbf3)"><path style=" stroke:none;fill-rule:evenodd;fill:#e2dbcb;fill-opacity:1;" d="M 248.070312 272.3125 C 258.183594 279.117188 264.117188 287.859375 264.117188 297.75 C 264.117188 310.214844 254.609375 320.914062 239.246094 328.132812 C 225.894531 334.40625 207.6875 338.285156 187.789062 338.285156 C 167.886719 338.285156 149.679688 334.402344 136.332031 328.132812 C 120.964844 320.914062 111.460938 310.214844 111.460938 297.75 C 111.460938 287.664062 117.605469 278.78125 128.039062 271.933594 C 156.230469 253.4375 163.542969 272.953125 139.183594 233.351562 C 128.5625 215.914062 117.941406 198.476562 107.316406 181.039062 C 98.214844 166.515625 92.949219 149.34375 92.949219 130.9375 C 92.949219 78.765625 135.242188 36.472656 187.417969 36.472656 C 239.589844 36.472656 281.882812 78.765625 281.882812 130.9375 C 281.882812 149.09375 276.761719 166.046875 267.886719 180.445312 C 257.238281 198.078125 246.59375 215.71875 235.945312 233.355469 C 211.292969 273.429688 219.523438 253.101562 248.070312 272.3125 Z M 156.761719 278.644531 C 149.296875 281.144531 142.644531 283.421875 137.683594 286.675781 C 132.277344 290.222656 129.097656 294.078125 129.097656 297.75 C 129.097656 302.800781 134.707031 307.960938 143.773438 312.222656 C 154.859375 317.425781 170.402344 320.648438 187.789062 320.648438 C 205.175781 320.648438 220.722656 317.425781 231.804688 312.222656 C 240.871094 307.960938 246.480469 302.800781 246.480469 297.75 C 246.480469 294.15625 243.449219 290.390625 238.289062 286.917969 C 232.859375 283.265625 225.363281 280.523438 216.667969 278.109375 C 208.636719 275.882812 204.367188 284.691406 199.523438 292.5625 C 188.09375 311.148438 187.320312 311.605469 175.828125 292.925781 C 168.410156 280.871094 167.105469 275.175781 156.761719 278.644531 Z M 187.417969 83.832031 C 210.804688 83.832031 229.769531 102.792969 229.769531 126.183594 C 229.769531 149.574219 210.804688 168.535156 187.417969 168.535156 C 164.027344 168.535156 145.066406 149.574219 145.066406 126.183594 C 145.066406 102.792969 164.027344 83.832031 187.417969 83.832031 Z M 187.417969 83.832031 "/></g></g></svg>