<svg xmlns="http://www.w3.org/2000/svg" xmlns:xlink="http://www.w3.org/1999/xlink" width="500" zoomAndPan="magnify" viewBox="0 0 375 374.999991" height="500" preserveAspectRatio="xMidYMid meet" version="1.2"><defs><clipPath id="b38142610e"><path d="M 75 75 L 300 75 L 300 300 L 75 300 Z M 75 75 "/></clipPath><clipPath id="2f1ddbdeb8"><path d="M 187.5 75 C 125.367188 75 75 125.367188 75 187.5 C 75 249.632812 125.367188 300 187.5 300 C 249.632812 300 300 249.632812 300 187.5 C 300 125.367188 249.632812 75 187.5 75 Z M 187.5 75 "/></clipPath><clipPath id="1ae1ba751b"><path d="M 37.5 37.5 L 337.5 37.5 L 337.5 337.5 L 37.5 337.5 Z M 37.5 37.5 "/></clipPath></defs><g id="f66f5a7ee5"><g clip-rule="nonzero" clip-path="url(#b38142610e)"><g clip-rule="nonzero" clip-path="url(#2f1ddbdeb8)"><path style=" stroke:none;fill-rule:nonzero;fill:#ffffff;fill-opacity:1;" d="M 75 75 L 300 75 L 300 300 L 75 300 Z M 75 75 "/></g></g><g clip-rule="nonzero" clip-path="url(#1ae1ba751b)"><path style=" stroke:none;fill-rule:nonzero;fill:#a47149;fill-opacity:1;" d="M 187.5 37.5 C 104.675781 37.5 37.5 104.675781 37.5 187.5 C 37.5 270.324219 104.675781 337.5 187.5 337.5 C 270.324219 337.5 337.5 270.324219 337.5 187.5 C 337.5 104.675781 270.324219 37.5 187.5 37.5 Z M 118.921875 129.113281 L 256.078125 129.113281 C 259.15625 129.105469 261.976562 129.949219 264.546875 131.640625 L 187.5 204.996094 L 165.027344 183.566406 L 110.453125 131.640625 C 113.023438 129.949219 115.84375 129.105469 118.921875 129.113281 Z M 103.472656 232.804688 L 103.472656 142.195312 C 103.878906 139.753906 104.816406 137.53125 106.28125 135.535156 L 160.894531 187.5 L 106.28125 239.464844 C 104.816406 237.46875 103.878906 235.246094 103.472656 232.804688 Z M 256.078125 245.886719 L 118.921875 245.886719 C 115.84375 245.894531 113.023438 245.050781 110.453125 243.359375 L 165.027344 191.433594 L 187.5 212.820312 L 209.972656 191.433594 L 264.546875 243.359375 C 261.976562 245.050781 259.15625 245.894531 256.078125 245.886719 Z M 271.527344 232.804688 C 271.121094 235.246094 270.183594 237.46875 268.71875 239.464844 L 214.105469 187.5 L 268.71875 135.535156 C 270.183594 137.53125 271.121094 139.753906 271.527344 142.195312 Z M 271.527344 232.804688 "/></g></g></svg>