<svg xmlns="http://www.w3.org/2000/svg" xmlns:xlink="http://www.w3.org/1999/xlink" width="500" zoomAndPan="magnify" viewBox="0 0 375 374.999991" height="500" preserveAspectRatio="xMidYMid meet" version="1.2"><defs><clipPath id="f51b0d6142"><path d="M 75 75 L 300 75 L 300 300 L 75 300 Z M 75 75 "/></clipPath><clipPath id="3f66eb58b4"><path d="M 187.5 75 C 125.367188 75 75 125.367188 75 187.5 C 75 249.632812 125.367188 300 187.5 300 C 249.632812 300 300 249.632812 300 187.5 C 300 125.367188 249.632812 75 187.5 75 Z M 187.5 75 "/></clipPath><clipPath id="7868cfe8d4"><path d="M 37.5 37.5 L 337.5 37.5 L 337.5 337.5 L 37.5 337.5 Z M 37.5 37.5 "/></clipPath></defs><g id="03ef38ddda"><g clip-rule="nonzero" clip-path="url(#f51b0d6142)"><g clip-rule="nonzero" clip-path="url(#3f66eb58b4)"><path style=" stroke:none;fill-rule:nonzero;fill:#ffffff;fill-opacity:1;" d="M 75 75 L 300 75 L 300 300 L 75 300 Z M 75 75 "/></g></g><g clip-rule="nonzero" clip-path="url(#7868cfe8d4)"><path style=" stroke:none;fill-rule:evenodd;fill:#a47149;fill-opacity:1;" d="M 187.5 37.5 C 270.34375 37.5 337.5 104.65625 337.5 187.5 C 337.5 270.34375 270.34375 337.5 187.5 337.5 C 104.65625 337.5 37.5 270.34375 37.5 187.5 C 37.5 104.65625 104.65625 37.5 187.5 37.5 Z M 114.554688 151.339844 C 115.316406 162.898438 118.3125 171.257812 122.273438 180.582031 C 130.902344 200.882812 167.179688 234.875 186.632812 246.378906 C 199.578125 254.035156 221.542969 262.730469 237.027344 257.300781 C 245.34375 254.386719 252.859375 248.003906 257.320312 240.570312 C 263 231.101562 260.433594 228.238281 254.695312 221.894531 C 250.273438 217.003906 245.015625 213.179688 239.828125 209.144531 L 234.3125 205.246094 C 230.71875 202.839844 226.804688 199.199219 221.09375 201.886719 C 217.285156 203.675781 215.457031 207.820312 212.628906 212.046875 C 207.976562 218.988281 208.289062 220.683594 202.746094 217.386719 C 193.597656 211.949219 158.039062 183.007812 155.277344 171.71875 C 154.660156 169.1875 157.273438 167.945312 159.136719 166.523438 C 161.289062 164.886719 168.386719 159.800781 169.699219 158.472656 C 179.207031 148.863281 156.558594 125.910156 149.554688 119.753906 C 145.507812 116.195312 142.214844 114.582031 135.933594 117.550781 C 130.617188 120.0625 126.5 123.742188 123.078125 127.808594 C 117.691406 134.207031 113.96875 142.433594 114.554688 151.339844 Z M 187.578125 164.269531 C 188.789062 173.816406 200.949219 167.566406 203.625 180.359375 C 204.21875 183.1875 204.757812 184.210938 206.460938 185.734375 C 211.671875 190.394531 220.492188 186.082031 219.390625 178.488281 C 218.023438 169.101562 212.484375 162.660156 206.65625 158.992188 C 204.011719 157.328125 198.367188 154.722656 194.457031 155.148438 C 190.253906 155.609375 186.964844 159.433594 187.578125 164.269531 Z M 188.0625 139.964844 C 188.640625 143.519531 191.296875 146.386719 195.054688 146.796875 C 200.046875 147.34375 202.265625 147.078125 206.910156 148.828125 C 213.75 151.398438 218.933594 155.898438 222.300781 160.957031 C 229.085938 171.15625 226.242188 177.898438 228.625 182.414062 C 232.015625 188.84375 243.6875 187.789062 243.375 177.414062 C 243.105469 168.550781 240.945312 162.078125 237.449219 155.488281 C 231.144531 143.605469 218.996094 134.839844 205.628906 131.996094 C 202.609375 131.351562 195.921875 130.402344 193.183594 131.511719 C 189.757812 132.902344 187.46875 136.320312 188.0625 139.964844 Z M 188.0625 139.964844 "/></g></g></svg>