<svg xmlns="http://www.w3.org/2000/svg" xmlns:xlink="http://www.w3.org/1999/xlink" width="500" zoomAndPan="magnify" viewBox="0 0 375 374.999991" height="500" preserveAspectRatio="xMidYMid meet" version="1.2"><defs><clipPath id="c74b04e3ae"><path d="M 37.5 37.5 L 337.5 37.5 L 337.5 337.5 L 37.5 337.5 Z M 37.5 37.5 "/></clipPath></defs><g id="da312d7bff"><g clip-rule="nonzero" clip-path="url(#c74b04e3ae)"><path style=" stroke:none;fill-rule:nonzero;fill:#a47149;fill-opacity:1;" d="M 337.488281 187.503906 C 337.488281 270.347656 270.328125 337.503906 187.488281 337.503906 C 104.640625 337.503906 37.484375 270.347656 37.484375 187.503906 C 37.484375 104.660156 104.640625 37.503906 187.488281 37.503906 C 270.328125 37.503906 337.488281 104.660156 337.488281 187.503906 Z M 337.488281 187.503906 "/></g><path style=" stroke:none;fill-rule:nonzero;fill:#ffffff;fill-opacity:1;" d="M 187.492188 94.613281 C 136.898438 94.613281 95.871094 135.628906 95.871094 186.234375 C 95.871094 223.75 118.429688 255.980469 150.714844 270.148438 C 150.457031 263.742188 150.671875 256.066406 152.304688 249.113281 C 154.070312 241.664062 164.09375 199.179688 164.09375 199.179688 C 164.09375 199.179688 161.164062 193.335938 161.164062 184.6875 C 161.164062 171.125 169.046875 160.980469 178.847656 160.980469 C 187.167969 160.980469 191.195312 167.234375 191.195312 174.726562 C 191.195312 183.101562 185.851562 195.632812 183.109375 207.238281 C 180.8125 216.957031 187.984375 224.882812 197.558594 224.882812 C 214.921875 224.882812 226.609375 202.597656 226.609375 176.175781 C 226.609375 156.101562 213.089844 141.074219 188.492188 141.074219 C 160.703125 141.074219 143.390625 161.792969 143.390625 184.9375 C 143.390625 192.925781 145.746094 198.554688 149.429688 202.910156 C 151.128906 204.917969 151.371094 205.71875 150.738281 208.015625 C 150.3125 209.710938 149.304688 213.761719 148.878906 215.367188 C 148.265625 217.699219 146.394531 218.523438 144.292969 217.664062 C 131.492188 212.445312 125.53125 198.421875 125.53125 182.667969 C 125.53125 156.644531 147.472656 125.429688 191.011719 125.429688 C 225.984375 125.429688 249.019531 150.742188 249.019531 177.917969 C 249.019531 213.855469 229.023438 240.703125 199.574219 240.703125 C 189.675781 240.703125 180.375 235.355469 177.199219 229.292969 C 177.199219 229.292969 171.871094 250.394531 170.753906 254.476562 C 168.808594 261.527344 165.003906 268.597656 161.527344 274.101562 C 169.757812 276.523438 178.46875 277.851562 187.492188 277.851562 C 238.082031 277.851562 279.101562 236.839844 279.101562 186.234375 C 279.101562 135.632812 238.085938 94.613281 187.492188 94.613281 Z M 187.492188 94.613281 "/></g></svg>