<svg xmlns="http://www.w3.org/2000/svg" xmlns:xlink="http://www.w3.org/1999/xlink" width="500" zoomAndPan="magnify" viewBox="0 0 375 374.999991" height="500" preserveAspectRatio="xMidYMid meet" version="1.2"><defs><clipPath id="1086a066bf"><path d="M 48 41 L 328.5 41 L 328.5 345 L 48 345 Z M 48 41 "/></clipPath></defs><g id="66ae6b680c"><g clip-rule="nonzero" clip-path="url(#1086a066bf)"><path style=" stroke:none;fill-rule:nonzero;fill:#e2dbcb;fill-opacity:1;" d="M 210.324219 73.128906 C 176.585938 34.570312 118.75 30.4375 80.191406 63.488281 C 41.632812 97.226562 37.5 155.066406 70.550781 193.625 C 94.648438 221.167969 131.140625 230.804688 164.191406 222.542969 L 184.160156 245.953125 L 193.800781 237.691406 L 224.097656 272.808594 L 244.0625 274.183594 L 242.6875 294.152344 L 262.65625 295.53125 L 261.277344 315.496094 L 281.246094 316.875 L 279.867188 336.84375 L 286.753906 344.417969 L 321.179688 342.351562 L 328.066406 308.613281 L 235.800781 201.886719 L 245.441406 193.625 L 225.472656 170.214844 C 238.554688 138.542969 234.425781 100.671875 210.324219 73.128906 Z M 98.09375 84.835938 C 107.042969 77.261719 120.125 77.949219 127.699219 86.898438 C 135.273438 95.851562 134.585938 108.933594 125.632812 116.507812 C 116.683594 124.082031 103.601562 123.394531 96.027344 114.441406 C 88.453125 105.492188 89.140625 92.410156 98.09375 84.835938 Z M 98.09375 84.835938 "/></g></g></svg>