<svg xmlns="http://www.w3.org/2000/svg" xmlns:xlink="http://www.w3.org/1999/xlink" width="500" zoomAndPan="magnify" viewBox="0 0 375 374.999991" height="500" preserveAspectRatio="xMidYMid meet" version="1.2"><defs><clipPath id="ad88f899c9"><path d="M 32.351562 145 L 342.851562 145 L 342.851562 290 L 32.351562 290 Z M 32.351562 145 "/></clipPath><clipPath id="51d25a7774"><path d="M 62 82.867188 L 313 82.867188 L 313 230 L 62 230 Z M 62 82.867188 "/></clipPath><clipPath id="7c56927847"><path d="M 60 274 L 315 274 L 315 307.867188 L 60 307.867188 Z M 60 274 "/></clipPath></defs><g id="5f9e1ede62"><g clip-rule="nonzero" clip-path="url(#ad88f899c9)"><path style=" stroke:none;fill-rule:nonzero;fill:#e2dbcb;fill-opacity:1;" d="M 101.753906 289.914062 L 273.242188 289.914062 C 282.574219 289.914062 291.652344 288.148438 299.722656 284.617188 C 308.296875 281.089844 315.863281 276.042969 322.167969 269.488281 C 328.472656 263.183594 333.769531 255.363281 337.296875 247.042969 C 340.578125 238.972656 342.59375 229.894531 342.59375 220.5625 L 342.59375 171.132812 C 342.59375 164.070312 339.820312 157.765625 335.28125 153.226562 C 330.742188 148.6875 324.4375 145.914062 317.375 145.914062 C 310.3125 145.914062 304.007812 148.6875 299.46875 153.226562 C 294.929688 157.765625 292.15625 164.070312 292.15625 171.132812 L 292.15625 220.5625 C 292.15625 223.085938 291.652344 225.605469 290.644531 227.875 C 289.632812 230.144531 288.375 232.164062 286.609375 233.929688 C 284.84375 235.695312 282.824219 236.953125 280.554688 237.964844 C 278.285156 238.972656 276.015625 239.476562 273.242188 239.476562 L 101.753906 239.476562 C 99.230469 239.476562 96.710938 238.972656 94.441406 237.964844 C 92.171875 236.953125 90.152344 235.695312 88.386719 233.929688 C 86.621094 232.164062 85.359375 230.144531 84.351562 227.875 C 83.34375 225.605469 82.839844 223.335938 82.839844 220.5625 L 82.839844 171.132812 C 82.839844 164.070312 80.066406 157.765625 75.527344 153.226562 C 70.984375 148.6875 64.679688 145.914062 57.621094 145.914062 C 50.558594 145.914062 44.253906 148.6875 39.714844 153.226562 C 35.175781 157.765625 32.402344 164.070312 32.402344 171.132812 L 32.402344 220.5625 C 32.402344 229.894531 34.167969 238.972656 37.695312 247.042969 C 41.226562 255.617188 46.273438 263.183594 52.828125 269.488281 C 59.132812 275.792969 66.949219 281.089844 75.273438 284.617188 C 83.34375 287.898438 92.421875 289.914062 101.753906 289.914062 Z M 101.753906 289.914062 "/></g><g clip-rule="nonzero" clip-path="url(#51d25a7774)"><path style=" stroke:none;fill-rule:nonzero;fill:#e2dbcb;fill-opacity:1;" d="M 187.496094 82.867188 L 101.753906 82.867188 C 90.910156 82.867188 81.324219 87.15625 74.265625 94.46875 C 67.203125 101.527344 62.664062 111.363281 62.664062 121.957031 L 62.664062 136.332031 C 70.480469 137.339844 77.289062 141.121094 82.585938 146.417969 C 88.890625 152.722656 92.925781 161.550781 92.925781 171.386719 L 92.925781 220.816406 C 92.925781 222.074219 93.179688 223.085938 93.683594 224.09375 C 94.1875 225.101562 94.691406 226.109375 95.699219 226.867188 C 96.457031 227.625 97.464844 228.378906 98.476562 228.886719 C 99.484375 229.390625 100.492188 229.640625 101.753906 229.640625 L 273.242188 229.640625 C 274.503906 229.640625 275.511719 229.390625 276.519531 228.886719 C 277.53125 228.378906 278.539062 227.875 279.292969 226.867188 C 280.050781 226.109375 280.808594 225.101562 281.3125 224.09375 C 281.816406 223.085938 282.070312 222.074219 282.070312 220.816406 L 282.070312 171.386719 C 282.070312 161.550781 286.105469 152.722656 292.410156 146.417969 C 297.703125 141.121094 304.515625 137.59375 312.332031 136.332031 L 312.332031 121.957031 C 312.332031 111.113281 308.042969 101.527344 300.730469 94.46875 C 293.667969 87.40625 283.835938 82.867188 273.242188 82.867188 Z M 187.496094 82.867188 "/></g><g clip-rule="nonzero" clip-path="url(#7c56927847)"><path style=" stroke:none;fill-rule:evenodd;fill:#e2dbcb;fill-opacity:1;" d="M 79.308594 306.054688 C 79.054688 306.308594 79.054688 306.558594 78.804688 306.558594 C 78.046875 307.316406 77.039062 307.820312 75.777344 307.820312 L 64.679688 307.820312 C 63.671875 307.820312 62.410156 307.316406 61.65625 306.558594 C 60.898438 305.804688 60.394531 304.792969 60.394531 303.53125 L 60.394531 275.035156 C 60.394531 275.035156 60.394531 274.785156 60.394531 274.785156 C 63.925781 277.054688 67.707031 278.820312 71.492188 280.582031 C 74.265625 281.84375 77.039062 282.855469 80.066406 283.609375 L 80.066406 303.785156 C 80.066406 304.542969 79.8125 305.550781 79.308594 306.308594 Z M 296.949219 307.0625 C 296.695312 307.0625 296.695312 306.8125 296.445312 306.558594 C 295.6875 305.804688 295.183594 304.792969 295.183594 303.53125 L 295.183594 283.359375 C 297.957031 282.601562 300.984375 281.59375 303.757812 280.332031 C 307.539062 278.820312 311.324219 276.800781 314.851562 274.53125 C 314.851562 274.53125 314.851562 274.785156 314.851562 274.785156 L 314.851562 303.28125 C 314.851562 304.289062 314.347656 305.550781 313.59375 306.308594 C 312.835938 307.0625 311.828125 307.566406 310.566406 307.566406 L 299.46875 307.566406 C 298.460938 307.566406 297.703125 307.316406 296.949219 306.8125 Z M 296.949219 307.0625 "/></g></g></svg>