<svg xmlns="http://www.w3.org/2000/svg" xmlns:xlink="http://www.w3.org/1999/xlink" width="500" zoomAndPan="magnify" viewBox="0 0 375 374.999991" height="500" preserveAspectRatio="xMidYMid meet" version="1.2"><defs><clipPath id="47a2f47e55"><path d="M 56.25 56.25 L 318.75 56.25 L 318.75 318.75 L 56.25 318.75 Z M 56.25 56.25 "/></clipPath><clipPath id="4ad832d2b6"><path d="M 187.5 56.25 C 115.011719 56.25 56.25 115.011719 56.25 187.5 C 56.25 259.988281 115.011719 318.75 187.5 318.75 C 259.988281 318.75 318.75 259.988281 318.75 187.5 C 318.75 115.011719 259.988281 56.25 187.5 56.25 Z M 187.5 56.25 "/></clipPath><clipPath id="db09bd9651"><path d="M 37.5 37.5 L 337.5 37.5 L 337.5 337.5 L 37.5 337.5 Z M 37.5 37.5 "/></clipPath></defs><g id="75e81fac8a"><g clip-rule="nonzero" clip-path="url(#47a2f47e55)"><g clip-rule="nonzero" clip-path="url(#4ad832d2b6)"><path style=" stroke:none;fill-rule:nonzero;fill:#ffffff;fill-opacity:1;" d="M 56.25 56.25 L 318.75 56.25 L 318.75 318.75 L 56.25 318.75 Z M 56.25 56.25 "/></g></g><g clip-rule="nonzero" clip-path="url(#db09bd9651)"><path style=" stroke:none;fill-rule:nonzero;fill:#a47149;fill-opacity:1;" d="M 187.5 37.5 C 104.644531 37.5 37.5 104.644531 37.5 187.5 C 37.5 270.355469 104.644531 337.5 187.5 337.5 C 270.355469 337.5 337.5 270.355469 337.5 187.5 C 337.371094 104.644531 270.226562 37.5 187.5 37.5 Z M 275.03125 153.734375 C 275.03125 153.734375 277.628906 211.136719 233.992188 246.722656 C 168.667969 299.835938 98.148438 256.722656 98.148438 256.722656 C 98.148438 256.722656 115.292969 256.980469 130.488281 252.953125 C 145.550781 248.929688 156.460938 239.058594 156.460938 239.058594 C 156.460938 239.058594 139.96875 235.683594 131.394531 229.449219 C 122.824219 223.214844 119.449219 211.265625 119.449219 211.265625 C 119.449219 211.265625 125.164062 211.785156 128.667969 211.65625 C 132.304688 211.527344 136.589844 209.835938 136.589844 209.835938 C 136.589844 209.835938 124.773438 208.410156 113.734375 196.070312 C 105.03125 186.332031 105.683594 170.097656 105.683594 170.097656 C 105.683594 170.097656 110.875 173.214844 113.605469 173.863281 C 116.332031 174.644531 121.65625 174.644531 121.65625 174.644531 C 121.65625 174.644531 111.265625 168.539062 106.722656 152.566406 C 102.175781 136.722656 110.875 120.617188 110.875 120.617188 C 110.875 120.617188 126.332031 139.316406 149.1875 151.265625 C 172.046875 163.214844 193.605469 162.824219 193.605469 162.824219 C 193.605469 162.824219 190.488281 153.34375 195.941406 139.316406 C 201.394531 125.292969 213.734375 115.164062 232.566406 113.734375 C 251.394531 112.175781 263.472656 126.460938 263.472656 126.460938 C 263.472656 126.460938 269.316406 125.421875 275.941406 122.953125 C 282.566406 120.617188 289.1875 117.5 289.1875 117.5 C 289.1875 117.5 286.851562 124.644531 282.304688 130.226562 C 277.757812 135.8125 272.695312 139.1875 272.695312 139.1875 C 272.695312 139.1875 278.667969 138.796875 284.644531 137.109375 C 290.617188 135.421875 293.863281 133.734375 293.863281 133.734375 C 286.980469 145.164062 275.03125 153.734375 275.03125 153.734375 Z M 275.03125 153.734375 "/></g></g></svg>