<svg xmlns="http://www.w3.org/2000/svg" xmlns:xlink="http://www.w3.org/1999/xlink" width="500" zoomAndPan="magnify" viewBox="0 0 375 374.999991" height="500" preserveAspectRatio="xMidYMid meet" version="1.2"><defs><clipPath id="c71219094a"><path d="M 37.5 37.5 L 337.5 37.5 L 337.5 337.5 L 37.5 337.5 Z M 37.5 37.5 "/></clipPath><clipPath id="9a46cf7f5d"><path d="M 187.5 37.5 C 104.65625 37.5 37.5 104.65625 37.5 187.5 C 37.5 270.34375 104.65625 337.5 187.5 337.5 C 270.34375 337.5 337.5 270.34375 337.5 187.5 C 337.5 104.65625 270.34375 37.5 187.5 37.5 Z M 187.5 37.5 "/></clipPath><clipPath id="2ea208b645"><path d="M 94 100.898438 L 281.25 100.898438 L 281.25 274.148438 L 94 274.148438 Z M 94 100.898438 "/></clipPath></defs><g id="71baa3cd5c"><g clip-rule="nonzero" clip-path="url(#c71219094a)"><g clip-rule="nonzero" clip-path="url(#9a46cf7f5d)"><path style=" stroke:none;fill-rule:nonzero;fill:#a47149;fill-opacity:1;" d="M 37.5 37.5 L 337.5 37.5 L 337.5 337.5 L 37.5 337.5 Z M 37.5 37.5 "/></g></g><g clip-rule="nonzero" clip-path="url(#2ea208b645)"><path style=" stroke:none;fill-rule:nonzero;fill:#ffffff;fill-opacity:1;" d="M 194.585938 100.898438 C 146.765625 100.898438 108 139.671875 108 187.507812 C 107.988281 198.121094 109.871094 208.394531 113.640625 218.316406 L 94.371094 254.457031 C 94.09375 254.980469 93.972656 255.539062 94.011719 256.132812 C 94.050781 256.726562 94.246094 257.261719 94.59375 257.746094 C 94.9375 258.226562 95.386719 258.582031 95.9375 258.804688 C 96.484375 259.03125 97.050781 259.097656 97.636719 259 L 137.1875 252.351562 C 141.109375 255.835938 145.3125 258.933594 149.796875 261.652344 C 154.285156 264.367188 158.980469 266.65625 163.886719 268.515625 C 168.789062 270.375 173.820312 271.773438 178.980469 272.714844 C 184.140625 273.65625 189.34375 274.125 194.585938 274.117188 C 242.40625 274.117188 281.171875 235.339844 281.171875 187.507812 C 281.171875 139.710938 242.367188 100.898438 194.585938 100.898438 Z M 194.84375 251.527344 C 190.660156 251.550781 186.515625 251.164062 182.410156 250.371094 C 178.304688 249.578125 174.3125 248.394531 170.441406 246.816406 C 166.566406 245.238281 162.882812 243.296875 159.390625 240.996094 C 155.898438 238.691406 152.664062 236.070312 149.6875 233.132812 L 125.996094 237.414062 C 125.417969 237.511719 124.855469 237.449219 124.3125 237.230469 C 123.765625 237.007812 123.320312 236.664062 122.972656 236.191406 C 122.625 235.71875 122.421875 235.191406 122.375 234.605469 C 122.324219 234.019531 122.429688 233.464844 122.691406 232.941406 L 134.65625 210.03125 C 131.839844 202.535156 130.484375 194.777344 130.585938 186.769531 C 130.980469 151.613281 159.4375 123.484375 194.585938 123.484375 C 229.9375 123.484375 258.589844 152.148438 258.589844 187.507812 C 258.589844 222.835938 230.160156 251.390625 194.84375 251.527344 Z M 194.84375 251.527344 "/></g><path style=" stroke:none;fill-rule:nonzero;fill:#ffffff;fill-opacity:1;" d="M 185.539062 165.917969 L 182.742188 154.117188 C 182.585938 153.441406 182.355469 152.792969 182.058594 152.167969 C 181.761719 151.542969 181.402344 150.953125 180.984375 150.402344 C 180.5625 149.855469 180.089844 149.355469 179.5625 148.90625 C 179.035156 148.453125 178.46875 148.066406 177.859375 147.734375 C 177.25 147.40625 176.613281 147.144531 175.949219 146.949219 C 175.285156 146.753906 174.609375 146.628906 173.917969 146.578125 C 173.226562 146.523438 172.539062 146.546875 171.851562 146.636719 C 171.167969 146.730469 170.5 146.894531 169.847656 147.128906 L 163.402344 149.449219 C 162.882812 149.640625 162.378906 149.871094 161.898438 150.140625 C 161.414062 150.414062 160.960938 150.726562 160.53125 151.074219 C 160.101562 151.425781 159.703125 151.808594 159.335938 152.226562 C 158.972656 152.644531 158.644531 153.085938 158.355469 153.558594 C 158.066406 154.03125 157.816406 154.527344 157.609375 155.039062 C 157.40625 155.554688 157.242188 156.082031 157.125 156.625 C 157.007812 157.164062 156.9375 157.710938 156.910156 158.265625 C 156.886719 158.820312 156.910156 159.371094 156.976562 159.921875 C 159.222656 178.175781 169.5625 222.332031 217.105469 232.03125 C 218.046875 232.226562 219 232.277344 219.960938 232.191406 C 220.917969 232.105469 221.84375 231.882812 222.738281 231.523438 C 223.632812 231.164062 224.457031 230.683594 225.207031 230.082031 C 225.960938 229.484375 226.613281 228.785156 227.160156 227.996094 L 230.859375 222.648438 C 231.226562 222.117188 231.539062 221.554688 231.796875 220.964844 C 232.050781 220.371094 232.25 219.761719 232.386719 219.128906 C 232.519531 218.496094 232.59375 217.859375 232.605469 217.214844 C 232.617188 216.566406 232.5625 215.925781 232.449219 215.292969 C 232.332031 214.65625 232.15625 214.039062 231.917969 213.4375 C 231.683594 212.835938 231.386719 212.265625 231.039062 211.722656 C 230.6875 211.179688 230.289062 210.675781 229.839844 210.214844 C 229.390625 209.75 228.902344 209.332031 228.371094 208.964844 C 228.351562 208.949219 228.328125 208.9375 228.308594 208.921875 L 220.179688 203.386719 C 219.742188 203.089844 219.285156 202.828125 218.804688 202.605469 C 218.324219 202.378906 217.832031 202.195312 217.324219 202.050781 C 216.8125 201.910156 216.296875 201.804688 215.773438 201.746094 C 215.246094 201.683594 214.71875 201.667969 214.191406 201.691406 C 213.664062 201.714844 213.140625 201.78125 212.621094 201.890625 C 212.105469 202 211.597656 202.152344 211.105469 202.339844 C 210.613281 202.53125 210.136719 202.761719 209.679688 203.027344 C 209.226562 203.292969 208.792969 203.597656 208.386719 203.933594 C 207.980469 204.269531 207.550781 204.570312 207.097656 204.835938 C 206.644531 205.101562 206.171875 205.332031 205.683594 205.523438 C 205.191406 205.714844 204.691406 205.863281 204.175781 205.972656 C 203.664062 206.082031 203.144531 206.152344 202.617188 206.179688 C 202.09375 206.203125 201.570312 206.1875 201.046875 206.132812 C 200.523438 206.074219 200.007812 205.972656 199.503906 205.835938 C 198.996094 205.695312 198.503906 205.515625 198.027344 205.292969 C 197.546875 205.074219 197.089844 204.816406 196.65625 204.523438 C 191.710938 201.191406 185.015625 195.667969 180.671875 188.007812 C 180.179688 187.148438 179.828125 186.234375 179.613281 185.269531 C 179.394531 184.304688 179.328125 183.328125 179.40625 182.34375 C 179.484375 181.355469 179.703125 180.40625 180.066406 179.484375 C 180.433594 178.566406 180.921875 177.71875 181.542969 176.949219 L 183.632812 174.347656 C 184.582031 173.164062 185.226562 171.835938 185.5625 170.355469 C 185.894531 168.875 185.886719 167.394531 185.539062 165.917969 Z M 185.539062 165.917969 "/></g></svg>